<svg version="1" xmlns="http://www.w3.org/2000/svg" width="682.667" height="682.667" viewBox="0 0 512.000000 512.000000"><path d="M450 1.6c4.5 1.5 54 14.7 59.3 15.8l2.7.6V0l-33.2.1c-30.5.1-32.9.2-28.8 1.5zM254 143v11l5 2.5 5 2.5 3.9-1.9c2.9-1.5 4-2.8 4.5-5.2.8-3.9.8-14.7 0-17.6l-.6-2.2-3.9 2.5c-2.1 1.3-4.1 2.4-4.4 2.4-.3 0-2.3-1.1-4.3-2.5s-4-2.5-4.4-2.5c-.5 0-.8 4.9-.8 11zM498 240.6c-1.4.3-5 .9-8 1.4-3 .5-13.9 1.6-24.1 2.5-10.3.8-20.8 1.9-23.3 2.5-2.5.5-13 1.9-23.4 3-15.9 1.7-25.6 3.1-36.8 5.5-1.2.3-2.4 1.3-2.6 2.3-.5 1.8.4 2 10.1 2.6 5.8.4 12.2.9 14.1 1.2 3.9.5 24.3 2.1 33 2.5l5.5.2-6 .7c-4.1.4-4.9.7-2.5.8 1.9.1 6 .5 9 .9l5.5.8-4.5.6c-2.8.4 1.5.7 11 .9l15.5.4-11 .5-11 .6 14.5.7c8 .5 22.3.8 31.8.8H512v-32l-5.7.1c-3.2.1-6.9.3-8.3.5zm-11 29.5c-2.5.4-5.6.8-7 .8-2.3 0-2.3-.1-.5-.9 1.1-.5 4.3-.8 7-.8l5 .1-4.5.8zM409.3 265.7c.9.2 2.3.2 3 0 .6-.3-.1-.5-1.8-.5-1.6 0-2.2.2-1.2.5zM397.3 272.7c1.5.2 3.7.2 5 0 1.2-.2 0-.4-2.8-.4-2.7 0-3.8.2-2.2.4zM447.8 272.7c1.7.2 4.7.2 6.5 0 1.7-.2.3-.4-3.3-.4-3.6 0-5 .2-3.2.4zM505.8 273.7c1.2.2 3.2.2 4.5 0 1.2-.2.2-.4-2.3-.4s-3.5.2-2.2.4zM464.5 277l-14 .6 13 .1c7.2 0 20.2-.3 29-.7l16-.6h-15c-8.2 0-21.3.3-29 .6zM502.8 278.7c1.7.2 4.7.2 6.5 0 1.7-.2.3-.4-3.3-.4-3.6 0-5 .2-3.2.4zM509.8 280.7c.7.3 1.6.2 1.9-.1.4-.3-.2-.6-1.3-.5-1.1 0-1.4.3-.6.6zM508.8 284.7c.6.2 1.8.2 2.5 0 .6-.3.1-.5-1.3-.5-1.4 0-1.9.2-1.2.5zM277.1 366.8c-2.6 2.5-3.1 2.7-5.7 1.5-4.2-1.8-6.8-1.6-8.1.6-.9 1.4-2.9 2.2-7 2.7-8.8 1-9.8 1.7-11.3 6.8-1.1 4-1.1 4.9.2 6.4 3.7 4.1 5 8.4 4.6 14.9l-.3 6.5 3.9 1.6c4.4 1.8 5.9.7 5.3-4.1-.4-3.3.5-3.4 4.7-.2 4.2 3.2 4.6 3.1 4.6-.4 0-7.1 1.8-8.4 19.3-14.6 7-2.5 10.2-5.5 9.3-8.8-.9-3.7-3.1-5.6-8.1-6.8-4.2-1.1-4.3-1.2-3.5-4 .7-2.3.5-3.1-.6-3.5-.7-.2-2.1-.6-3-.9-.9-.3-2.8.7-4.3 2.3zM256.5 403c-.3.5-1.2 1-1.8 1-.7 0-.6-.4.3-1 1.9-1.2 2.3-1.2 1.5 0zM507.9 454.4c-.2.2-8.3 2-17.9 3.9-12.7 2.5-19.1 3.4-23.2 3-5-.5-7.1 0-19.2 4.5-11.7 4.4-14.1 5-18.4 4.5-4.7-.5-5-.4-7.2 2.7s-2.6 3.2-7.4 2.7c-4-.4-6.1 0-10.1 1.9-4.4 2.2-9.8 4-14.5 4.9-4.1.8-15.2 3.8-20.8 5.7-5.1 1.6-7.7 1.9-12.7 1.3-5.9-.6-7.2-.3-15.7 3.1-11.2 4.4-11.6 4.7-12.4 9l-.6 3.4H321c-6.2 0-6.8.2-7.4 2.3-.3 1.2-.6 2.8-.6 3.4 0 1 20.6 1.3 99.5 1.3H512v-29c0-27.5-.1-29-1.8-29-1 0-2.1.2-2.3.4z"/></svg>